<?xml version="1.0" encoding="UTF-8" standalone="no"?>
<!DOCTYPE svg PUBLIC "-//W3C//DTD SVG 1.1//EN"
"http://www.w3.org/Graphics/SVG/1.1/DTD/svg11.dtd">
<svg width="190" height="190"
	version="1.1" xmlns="http://www.w3.org/2000/svg">
  <title>Glyphicon Book</title>
  <path
     d="M 39.583331,0 170.20832,0 q 11.87501,0 11.87501,11.875004 l 0,142.499996 q 0,3.95833 -2.85,6.80834 l -10.13334,10.13332 q -1.26666,1.26667 -2.05833,0.87084 -0.79167,-0.39584 -0.79167,-1.97917 l 0,-150.416663 q 0,-1.583331 -1.18749,-2.770836 -1.18751,-1.187496 -2.77084,-1.187496 l -110.833326,0 q -3.958331,0 -6.80833,2.85 L 34.516667,28.816672 q -1.266668,1.266659 -0.870833,2.058329 0.395835,0.79167 1.979165,0.79167 l 110.833331,0 q 1.58334,0 2.77083,1.187495 1.18751,1.187504 1.18751,2.770836 l 0,150.416668 q 0,1.58333 -1.18751,2.77083 Q 148.04167,190 146.45833,190 l -134.583329,0 q -1.58333,0 -2.7708352,-1.1875 Q 7.91667,187.625 7.91667,186.04167 l 0,-154.375 q 0,-3.958332 2.849999,-6.80834 L 32.775,2.849999 Q 35.624999,0 39.583331,0 Z"
     style="fill:#337ab7;fill-opacity:1"
     id="path6"
     inkscape:connector-curvature="0" />
</svg>