<?xml version="1.0" encoding="UTF-8" standalone="no"?>
<svg
   xmlns:dc="http://purl.org/dc/elements/1.1/"
   xmlns:cc="http://creativecommons.org/ns#"
   xmlns:rdf="http://www.w3.org/1999/02/22-rdf-syntax-ns#"
   xmlns:svg="http://www.w3.org/2000/svg"
   xmlns="http://www.w3.org/2000/svg"
   xmlns:sodipodi="http://sodipodi.sourceforge.net/DTD/sodipodi-0.dtd"
   xmlns:inkscape="http://www.inkscape.org/namespaces/inkscape"
   version="1.1"
   id="svg2"
   inkscape:version="0.91 r13725"
   sodipodi:docname="envelope.svg"
   inkscape:export-filename="C:\xampp\htdocs\livredor\web\img\envelope.png"
   inkscape:export-xdpi="90.418602"
   inkscape:export-ydpi="90.418602">
  <metadata
     id="metadata12">
    <rdf:RDF>
      <cc:Work
         rdf:about="">
        <dc:format>image/svg+xml</dc:format>
        <dc:type
           rdf:resource="http://purl.org/dc/dcmitype/StillImage" />
        <dc:title>Envelope</dc:title>
      </cc:Work>
    </rdf:RDF>
  </metadata>
  <defs
     id="defs10" />
  <sodipodi:namedview
     pagecolor="#ffffff"
     bordercolor="#666666"
     borderopacity="1"
     objecttolerance="10"
     gridtolerance="10"
     guidetolerance="10"
     inkscape:pageopacity="0"
     inkscape:pageshadow="2"
     inkscape:window-width="1920"
     inkscape:window-height="1017"
     id="namedview8"
     showgrid="false"
     inkscape:zoom="2.36"
     inkscape:cx="184.66106"
     inkscape:cy="-5.8049619"
     inkscape:window-x="-8"
     inkscape:window-y="-8"
     inkscape:window-maximized="1"
     inkscape:current-layer="svg2" />
  <title
     id="title4">Envelope</title>
  <path
     d="m 2.6875,-7.5 123.625,0 q 1.075,0 1.34375,0.5375 0.26875,0.5375 -0.59125,1.3975 l -60.63,60.9525 q -0.86,0.86 -1.935,0.86 -1.075,0 -1.935,-0.86 L 1.935,-5.565 Q 1.075,-6.425 1.34375,-6.9625 1.6125,-7.5 2.6875,-7.5 Z m -0.7525,23.435 28.38,28.38 q 0.86,0.86 0.86,1.935 0,1.075 -0.86,1.935 L 1.935,76.565 Q 1.075,77.425 0.5375,77.1563 0,76.8875 0,75.8125 L 0,16.6875 Q 0,15.6125 0.5375,15.3437 1.075,15.075 1.935,15.935 Z m 96.75,28.38 28.38,-28.38 q 0.86,-0.86 1.3975,-0.5913 Q 129,15.6125 129,16.6875 l 0,59.125 q 0,1.075 -0.5375,1.3438 -0.5375,0.2687 -1.3975,-0.5913 l -28.38,-28.38 q -0.86,-0.86 -0.86,-1.935 0,-1.075 0.86,-1.935 z m -10.75,14.62 39.13,39.13 q 0.86,0.86 0.59125,1.3975 Q 127.3875,100 126.3125,100 L 2.6875,100 Q 1.6125,100 1.34375,99.4625 1.075,98.925 1.935,98.065 l 39.13,-39.13 q 0.86,-0.86 1.935,-0.86 1.075,0 1.935,0.86 l 17.63,17.63 q 0.86,0.86 1.935,0.86 1.075,0 1.935,-0.86 l 17.63,-17.63 q 0.86,-0.86 1.935,-0.86 1.075,0 1.935,0.86 z"
     id="path6"
     inkscape:connector-curvature="0"
     style="fill:#337ab7;fill-opacity:1" />
</svg>
