<?xml version="1.0" encoding="UTF-8" standalone="no"?>

<!DOCTYPE svg PUBLIC "-//W3C//DTD SVG 1.1//EN" "http://www.w3.org/Graphics/SVG/1.1/DTD/svg11.dtd">
<svg
   width="190" height="190"
   version="1.1" xmlns="http://www.w3.org/2000/svg">
  <title>Envelope</title>
  <path transform="translate(30 45)"
     d="m 2.6875,-7.5 123.625,0 q 1.075,0 1.34375,0.5375 0.26875,0.5375 -0.59125,1.3975 l -60.63,60.9525 q -0.86,0.86 -1.935,0.86 -1.075,0 -1.935,-0.86 L 1.935,-5.565 Q 1.075,-6.425 1.34375,-6.9625 1.6125,-7.5 2.6875,-7.5 Z m -0.7525,23.435 28.38,28.38 q 0.86,0.86 0.86,1.935 0,1.075 -0.86,1.935 L 1.935,76.565 Q 1.075,77.425 0.5375,77.1563 0,76.8875 0,75.8125 L 0,16.6875 Q 0,15.6125 0.5375,15.3437 1.075,15.075 1.935,15.935 Z m 96.75,28.38 28.38,-28.38 q 0.86,-0.86 1.3975,-0.5913 Q 129,15.6125 129,16.6875 l 0,59.125 q 0,1.075 -0.5375,1.3438 -0.5375,0.2687 -1.3975,-0.5913 l -28.38,-28.38 q -0.86,-0.86 -0.86,-1.935 0,-1.075 0.86,-1.935 z m -10.75,14.62 39.13,39.13 q 0.86,0.86 0.59125,1.3975 Q 127.3875,100 126.3125,100 L 2.6875,100 Q 1.6125,100 1.34375,99.4625 1.075,98.925 1.935,98.065 l 39.13,-39.13 q 0.86,-0.86 1.935,-0.86 1.075,0 1.935,0.86 l 17.63,17.63 q 0.86,0.86 1.935,0.86 1.075,0 1.935,-0.86 l 17.63,-17.63 q 0.86,-0.86 1.935,-0.86 1.075,0 1.935,0.86 z"
     id="path6"
     inkscape:connector-curvature="0"
     style="fill:#337ab7;fill-opacity:1" />
</svg>
